<svg width="688" height="687" xmlns="http://www.w3.org/2000/svg" xmlns:xlink="http://www.w3.org/1999/xlink" overflow="hidden"><defs><clipPath id="clip0"><rect x="1856" y="894" width="688" height="687"/></clipPath></defs><g clip-path="url(#clip0)" transform="translate(-1856 -894)"><path d="M1856 1251 2516 1251" stroke="#FEC217" stroke-width="10.3125" stroke-miterlimit="8" fill="none" fill-rule="evenodd"/><path d="M0 0 582.483 0" stroke="#FEC217" stroke-width="18.351" stroke-linecap="round" stroke-linejoin="round" stroke-dasharray="27.4186 45.7696 0 0" fill="none" fill-rule="evenodd" transform="matrix(1.14978 0 0 1 1868.76 1378.06)"/><path d="M0 0 582.483 0" stroke="#FEC217" stroke-width="18.351" stroke-linecap="round" stroke-linejoin="round" stroke-dasharray="27.4186 45.7696 0 0" fill="none" fill-rule="evenodd" transform="matrix(1.14978 0 0 1 1868.76 1109.96)"/><path d="M0 295.163 70.2203 115.804C70.2203 115.804 146.749 295.639 146.749 270.051 146.749 244.343 188.881 93.7858 188.881 93.7858L249.58 71.4105 315.991 220.896 358.124-25.7078 432.748 320.871 528.795 77.0043 592.707 286.832" stroke="#119ABD" stroke-width="23.8035" stroke-linecap="round" stroke-linejoin="round" stroke-miterlimit="10" fill="none" fill-rule="evenodd" transform="matrix(1 0 0 1.1746 1899.62 1063.41)"/></g></svg>